<mxfile host="Electron" modified="2023-06-15T20:12:39.698Z" agent="Mozilla/5.0 (Windows NT 10.0; Win64; x64) AppleWebKit/537.36 (KHTML, like Gecko) draw.io/21.3.7 Chrome/112.0.5615.204 Electron/24.5.0 Safari/537.36" etag="EKflwJcafbLvbVcY3s0R" version="21.3.7" type="device">
  <diagram name="Page-1" id="LU3ok9odYsNwOwRu-3kd">
    <mxGraphModel dx="757" dy="571" grid="1" gridSize="10" guides="1" tooltips="1" connect="1" arrows="1" fold="1" page="1" pageScale="1" pageWidth="827" pageHeight="1169" math="0" shadow="0">
      <root>
        <mxCell id="0" />
        <mxCell id="1" parent="0" />
        <mxCell id="_vy8br2h-nZCD1hv4miV-14" value="" style="edgeStyle=orthogonalEdgeStyle;rounded=0;orthogonalLoop=1;jettySize=auto;html=1;startArrow=classic;startFill=1;" edge="1" parent="1" source="_vy8br2h-nZCD1hv4miV-1" target="_vy8br2h-nZCD1hv4miV-2">
          <mxGeometry relative="1" as="geometry" />
        </mxCell>
        <mxCell id="_vy8br2h-nZCD1hv4miV-16" value="" style="edgeStyle=orthogonalEdgeStyle;rounded=0;orthogonalLoop=1;jettySize=auto;html=1;startArrow=classic;startFill=1;" edge="1" parent="1" source="_vy8br2h-nZCD1hv4miV-1" target="_vy8br2h-nZCD1hv4miV-8">
          <mxGeometry relative="1" as="geometry" />
        </mxCell>
        <mxCell id="_vy8br2h-nZCD1hv4miV-1" value="Raspberry Pi" style="rounded=0;whiteSpace=wrap;html=1;" vertex="1" parent="1">
          <mxGeometry x="380" y="410" width="120" height="60" as="geometry" />
        </mxCell>
        <mxCell id="_vy8br2h-nZCD1hv4miV-2" value="Nutrient Control" style="rounded=0;whiteSpace=wrap;html=1;" vertex="1" parent="1">
          <mxGeometry x="550" y="410" width="80" height="60" as="geometry" />
        </mxCell>
        <mxCell id="_vy8br2h-nZCD1hv4miV-13" value="" style="edgeStyle=orthogonalEdgeStyle;rounded=0;orthogonalLoop=1;jettySize=auto;html=1;entryX=1;entryY=0.25;entryDx=0;entryDy=0;startArrow=classic;startFill=1;" edge="1" parent="1" source="_vy8br2h-nZCD1hv4miV-3" target="_vy8br2h-nZCD1hv4miV-1">
          <mxGeometry relative="1" as="geometry" />
        </mxCell>
        <mxCell id="_vy8br2h-nZCD1hv4miV-3" value="Aeroponics Control" style="rounded=0;whiteSpace=wrap;html=1;" vertex="1" parent="1">
          <mxGeometry x="550" y="330" width="80" height="60" as="geometry" />
        </mxCell>
        <mxCell id="_vy8br2h-nZCD1hv4miV-15" value="" style="edgeStyle=orthogonalEdgeStyle;rounded=0;orthogonalLoop=1;jettySize=auto;html=1;entryX=1;entryY=0.75;entryDx=0;entryDy=0;startArrow=classic;startFill=1;" edge="1" parent="1" source="_vy8br2h-nZCD1hv4miV-4" target="_vy8br2h-nZCD1hv4miV-1">
          <mxGeometry relative="1" as="geometry" />
        </mxCell>
        <mxCell id="_vy8br2h-nZCD1hv4miV-4" value="Environment Control" style="rounded=0;whiteSpace=wrap;html=1;" vertex="1" parent="1">
          <mxGeometry x="550" y="490" width="80" height="60" as="geometry" />
        </mxCell>
        <mxCell id="_vy8br2h-nZCD1hv4miV-12" value="" style="edgeStyle=orthogonalEdgeStyle;rounded=0;orthogonalLoop=1;jettySize=auto;html=1;entryX=0.75;entryY=0;entryDx=0;entryDy=0;" edge="1" parent="1" source="_vy8br2h-nZCD1hv4miV-5" target="_vy8br2h-nZCD1hv4miV-1">
          <mxGeometry relative="1" as="geometry" />
        </mxCell>
        <mxCell id="_vy8br2h-nZCD1hv4miV-5" value="Plant Camera" style="rounded=0;whiteSpace=wrap;html=1;" vertex="1" parent="1">
          <mxGeometry x="460" y="280" width="60" height="60" as="geometry" />
        </mxCell>
        <mxCell id="_vy8br2h-nZCD1hv4miV-11" value="" style="edgeStyle=orthogonalEdgeStyle;rounded=0;orthogonalLoop=1;jettySize=auto;html=1;entryX=0.25;entryY=0;entryDx=0;entryDy=0;" edge="1" parent="1" source="_vy8br2h-nZCD1hv4miV-6" target="_vy8br2h-nZCD1hv4miV-1">
          <mxGeometry relative="1" as="geometry" />
        </mxCell>
        <mxCell id="_vy8br2h-nZCD1hv4miV-6" value="Root Camera" style="rounded=0;whiteSpace=wrap;html=1;" vertex="1" parent="1">
          <mxGeometry x="360" y="280" width="60" height="60" as="geometry" />
        </mxCell>
        <mxCell id="_vy8br2h-nZCD1hv4miV-10" value="" style="edgeStyle=orthogonalEdgeStyle;rounded=0;orthogonalLoop=1;jettySize=auto;html=1;" edge="1" parent="1" source="_vy8br2h-nZCD1hv4miV-7" target="_vy8br2h-nZCD1hv4miV-1">
          <mxGeometry relative="1" as="geometry" />
        </mxCell>
        <mxCell id="_vy8br2h-nZCD1hv4miV-7" value="Touchscreen&lt;br&gt;(local control)" style="rounded=0;whiteSpace=wrap;html=1;" vertex="1" parent="1">
          <mxGeometry x="380" y="540" width="120" height="60" as="geometry" />
        </mxCell>
        <mxCell id="_vy8br2h-nZCD1hv4miV-17" value="" style="edgeStyle=orthogonalEdgeStyle;rounded=0;orthogonalLoop=1;jettySize=auto;html=1;startArrow=classic;startFill=1;" edge="1" parent="1" source="_vy8br2h-nZCD1hv4miV-8" target="_vy8br2h-nZCD1hv4miV-9">
          <mxGeometry relative="1" as="geometry" />
        </mxCell>
        <mxCell id="_vy8br2h-nZCD1hv4miV-8" value="Network" style="ellipse;shape=cloud;whiteSpace=wrap;html=1;" vertex="1" parent="1">
          <mxGeometry x="230" y="400" width="120" height="80" as="geometry" />
        </mxCell>
        <mxCell id="_vy8br2h-nZCD1hv4miV-9" value="Web UI&lt;br&gt;(remote control)" style="rounded=0;whiteSpace=wrap;html=1;" vertex="1" parent="1">
          <mxGeometry x="80" y="410" width="120" height="60" as="geometry" />
        </mxCell>
      </root>
    </mxGraphModel>
  </diagram>
</mxfile>
